<svg xmlns="http://www.w3.org/2000/svg" width="0" height="0" viewBox="0 0 33.614 36.003">
  <g id="Group_9567" data-name="Group 9567" transform="translate(-43.67 -500)">
    <g id="noun-refresh-1713562" transform="translate(-76.231 466.897)">
      <path id="Path_9" data-name="Path 9" d="M209.166,211.933a1.129,1.129,0,0,0-.964,1.376,13.722,13.722,0,0,1,.476,3.615,14.156,14.156,0,0,1-22.317,11.437l3.015-.351a1.078,1.078,0,0,0-.068-2.145c-1.88.166-3.8.425-5.692.648a1.126,1.126,0,0,0-.937,1.295l1.209,5.516a1.086,1.086,0,1,0,2.119-.445l-.543-2.522a16.32,16.32,0,0,0,25.388-13.434,15.866,15.866,0,0,0-.557-4.181,1.117,1.117,0,0,0-1.019-.809c-.036,0-.072,0-.109,0Z" transform="translate(-57.836 -165.664)" fill="#838383" stroke="#838383" stroke-width="1" fill-rule="evenodd"/>
      <path id="Path_10" data-name="Path 10" d="M145.869,33.6a1.089,1.089,0,0,0-.8.464,1.073,1.073,0,0,0-.148.911l.734,2.738A16.341,16.341,0,0,0,120.4,51.26a15.746,15.746,0,0,0,.543,4.154,1.084,1.084,0,0,0,.51.657,1.095,1.095,0,0,0,1.489-.4,1.076,1.076,0,0,0,.106-.823,13.6,13.6,0,0,1-.476-3.588A14.178,14.178,0,0,1,145.163,40l-3.423.58a1.081,1.081,0,1,0,.367,2.131l5.651-.958a1.088,1.088,0,0,0,.73-.478,1.073,1.073,0,0,0,.139-.857l-1.616-6h0a1.077,1.077,0,0,0-.379-.577,1.092,1.092,0,0,0-.653-.232c-.036,0-.072,0-.109,0Z" fill="#838383" stroke="#838383" stroke-width="1" fill-rule="evenodd"/>
    </g>
    <path id="Icon_metro-dollar2" data-name="Icon metro-dollar2" d="M20.156,15.156a4.158,4.158,0,0,1-1.088,2.88,4.694,4.694,0,0,1-2.825,1.492v1.913a.337.337,0,0,1-.35.35H14.417a.355.355,0,0,1-.35-.35V19.528a6.89,6.89,0,0,1-1.394-.339,6.712,6.712,0,0,1-1.918-1.011,6.23,6.23,0,0,1-.508-.41q-.137-.131-.191-.2a.332.332,0,0,1-.022-.448l1.126-1.476a.34.34,0,0,1,.251-.131.271.271,0,0,1,.262.1l.022.022A5.708,5.708,0,0,0,14.352,17a3.818,3.818,0,0,0,.809.087,2.65,2.65,0,0,0,1.558-.47,1.531,1.531,0,0,0,.672-1.333,1.108,1.108,0,0,0-.164-.579,2.048,2.048,0,0,0-.366-.459,3,3,0,0,0-.639-.41q-.437-.224-.721-.35t-.874-.355q-.426-.175-.672-.273t-.672-.29q-.426-.191-.683-.339t-.618-.388a3.849,3.849,0,0,1-.585-.465,6.812,6.812,0,0,1-.475-.536,2.674,2.674,0,0,1-.388-.634,4.384,4.384,0,0,1-.23-.727,3.794,3.794,0,0,1-.093-.853A3.737,3.737,0,0,1,11.28,5.985a5,5,0,0,1,2.787-1.465V2.553a.355.355,0,0,1,.35-.35h1.476a.337.337,0,0,1,.35.35V4.477a6.08,6.08,0,0,1,1.208.251,7,7,0,0,1,.951.366,5.266,5.266,0,0,1,.694.41q.328.23.426.317t.164.153a.316.316,0,0,1,.055.415l-.885,1.6a.3.3,0,0,1-.251.175.348.348,0,0,1-.3-.077q-.033-.033-.158-.131t-.426-.29a5.641,5.641,0,0,0-.639-.35,4.882,4.882,0,0,0-.814-.284,3.647,3.647,0,0,0-.935-.126,2.841,2.841,0,0,0-1.694.47,1.469,1.469,0,0,0-.563,1.738,1.23,1.23,0,0,0,.322.454,4.817,4.817,0,0,0,.432.361,3.85,3.85,0,0,0,.612.339q.41.191.661.3t.765.3q.579.219.885.344t.831.383a6.6,6.6,0,0,1,.825.465,6.979,6.979,0,0,1,.678.547,2.83,2.83,0,0,1,.579.694,3.961,3.961,0,0,1,.344.836,3.606,3.606,0,0,1,.142,1.027Z" transform="translate(45.42 506.003)" fill="#838383"/>
  </g>
</svg>
