<svg xmlns="http://www.w3.org/2000/svg" width="0" height="0" viewBox="0 0 43.217 31.545">
  <g id="noun-promotion-4796038" transform="translate(-75.365 -113.214)">
    <path id="Path_26595" data-name="Path 26595" d="M158.871,128.986c0-2.847-1.716-5.2-4-5.518v-3.994a6.238,6.238,0,0,0-9.357-5.4l-15.066,8.7h-3.8a5.153,5.153,0,0,0-5.148,5.148v2.135a5.153,5.153,0,0,0,5.148,5.148h1.973l-2.312,3.213a3.591,3.591,0,0,0,5.83,4.195l3.271-4.545,10.108,5.836a6.1,6.1,0,0,0,6.238,0,6.1,6.1,0,0,0,3.12-5.4V134.5c2.284-.314,4-2.672,4-5.518Zm-35.235,1.068v-2.135a3.011,3.011,0,0,1,3.008-3.008h3.008v8.151h-3.008A3.011,3.011,0,0,1,123.636,130.054Zm6.761,11.305a1.451,1.451,0,0,1-2.356-1.7l2.975-4.134,2.527,1.458Zm1.395-7.851v-9.043l14.791-8.539a4.067,4.067,0,0,1,2.066-.571,1.047,1.047,0,0,0-.018.181V142.62a4.076,4.076,0,0,1-2.048-.572Zm20.939,4.99a3.946,3.946,0,0,1-1.961,3.491v-26a3.946,3.946,0,0,1,1.961,3.491Zm2.14-6.181v-6.662a3.911,3.911,0,0,1,0,6.662Zm9.843-3.331a1.07,1.07,0,0,1-1.07,1.07h-2.5a1.07,1.07,0,1,1,0-2.139h2.5A1.07,1.07,0,0,1,164.714,128.986Zm-6.214-5.237a1.07,1.07,0,0,1,.3-1.482l1.951-1.29a1.07,1.07,0,1,1,1.18,1.785l-1.951,1.29a1.07,1.07,0,0,1-1.482-.3Zm3.874,13.035a1.071,1.071,0,0,1-1.483.3l-2.089-1.381a1.07,1.07,0,0,1,1.18-1.785l2.089,1.381a1.071,1.071,0,0,1,.3,1.482Z" transform="translate(-46.132)" fill="#fff"/>
  </g>
</svg>
