<svg xmlns="http://www.w3.org/2000/svg" width="0" height="0" viewBox="0 0 31.715 30.941">
  <path id="noun-support-4917920" d="M117.794,52.049a8.9,8.9,0,1,1,17.792,0v9.906a5.143,5.143,0,0,1-4.505,5.1l-.553.069a3.093,3.093,0,0,0-2.677-1.542h-2.321a3.094,3.094,0,1,0,0,6.188h2.321a3.1,3.1,0,0,0,3-2.349l.514-.064a7.466,7.466,0,0,0,6.357-5.768,2.958,2.958,0,0,0,1.325.078,4.185,4.185,0,0,0,3.5-4.128V55.385a4.185,4.185,0,0,0-3.5-4.128,2.968,2.968,0,0,0-1.169.037,11.217,11.217,0,0,0-22.382,0,2.968,2.968,0,0,0-1.169-.037,4.185,4.185,0,0,0-3.5,4.128v4.157a4.185,4.185,0,0,0,3.5,4.128,2.96,2.96,0,0,0,1.378-.094,1.16,1.16,0,0,0,2.087-.7Zm-3.083,1.5a.654.654,0,0,1,.762.646v6.545a.654.654,0,0,1-.762.646,1.865,1.865,0,0,1-1.558-1.839V55.385a1.865,1.865,0,0,1,1.558-1.839Zm23.195.646v6.545a.655.655,0,0,0,.762.646,1.865,1.865,0,0,0,1.558-1.839V55.385a1.865,1.865,0,0,0-1.558-1.839.654.654,0,0,0-.762.646ZM124.755,68.68a.774.774,0,0,1,.774-.773h2.321a.773.773,0,1,1,0,1.547h-2.321A.774.774,0,0,1,124.755,68.68Z" transform="translate(-110.832 -40.833)" fill="#fff" fill-rule="evenodd"/>
</svg>
