<svg xmlns="http://www.w3.org/2000/svg" width="0" height="0" viewBox="0 0 26.561 33.804">
  <g id="noun-bill-4905109" transform="translate(-157.5 -35)">
    <path id="Path_5" data-name="Path 5" d="M299.915,106.871a3.015,3.015,0,0,0-2.415,2.957v.07a3.017,3.017,0,0,0,3.018,3.018h1.243a.567.567,0,0,1,.568.567v0a.567.567,0,0,1-.568.568h-3.054a1.207,1.207,0,1,0,0,2.415h1.207v.6a1.207,1.207,0,1,0,2.415,0v-.658a2.983,2.983,0,0,0,2.415-2.928v0a2.982,2.982,0,0,0-2.982-2.982h-1.243a.6.6,0,0,1-.6-.6v-.07a.6.6,0,0,1,.6-.6h3.018a1.207,1.207,0,1,0,0-2.415h-1.207v-.6a1.207,1.207,0,1,0-2.415,0Z" transform="translate(-130.342 -65.169)" fill="#838383" fill-rule="evenodd"/>
    <path id="Path_6" data-name="Path 6" d="M184.061,38.018A3.018,3.018,0,0,0,181.042,35H160.518a3.018,3.018,0,0,0-3.018,3.018V65.786a3.018,3.018,0,0,0,3.018,3.018h20.524a3.018,3.018,0,0,0,3.018-3.018Zm-2.415,0V65.786a.6.6,0,0,1-.6.6H160.518a.6.6,0,0,1-.6-.6V38.018a.6.6,0,0,1,.6-.6h20.524a.6.6,0,0,1,.6.6Z" transform="translate(0 0)" fill="#838383" fill-rule="evenodd"/>
    <path id="Path_7" data-name="Path 7" d="M228.71,334.915H243.2a1.207,1.207,0,1,0,0-2.415H228.71a1.207,1.207,0,1,0,0,2.415Z" transform="translate(-65.173 -276.976)" fill="#838383" fill-rule="evenodd"/>
    <path id="Path_8" data-name="Path 8" d="M228.707,404.915H240.78a1.207,1.207,0,0,0,0-2.415H228.707a1.207,1.207,0,0,0,0,2.415Z" transform="translate(-65.171 -342.147)" fill="#838383" fill-rule="evenodd"/>
  </g>
</svg>
