<?xml version="1.0" encoding="UTF-8"?><svg id="Layer_2" xmlns="http://www.w3.org/2000/svg" viewBox="0 0 159.26 159.26"><defs><style>.cls-1{fill:#00e556;}.cls-2{fill:#fff;}</style></defs><g id="Layer_1-2"><g><path class="cls-1" d="M79.63,159.26C35.72,159.26,0,123.54,0,79.63,0,48.57,18.21,20.4,45.98,7.44c2.26-.81,6.67-2.57,6.67-2.57,0,0,3.03-1,4.66-1.7,3.53-1.03,7.14-1.81,10.78-2.34,3.8-.55,7.68-.83,11.54-.83,43.91,0,79.63,35.72,79.63,79.63s-35.72,79.63-79.63,79.63"/><path class="cls-2" d="M111.71,60.78l-43-20.26v12.53l38.17,17.99c5.13,2.42,8.17,7.25,8.13,12.92-.04,5.67-3.14,10.46-8.3,12.81l-38.02,17.34c-2.41,1.39-5.17,1.39-7.58,0-2.38-1.37-3.79-3.82-3.79-6.57V3.17c-1.57,.46-3.13,.96-4.66,1.52-2.28,.82-4.5,1.74-6.67,2.75V107.54c0,6.84,3.54,12.96,9.46,16.38,2.96,1.71,6.21,2.56,9.45,2.56s6.23-.8,9.09-2.37l37.41-17.03c9.15-4.16,14.87-13,14.94-23.05,.07-10.05-5.54-18.96-14.63-23.24"/></g></g></svg>